<?xml version="1.0" encoding="utf-8"?>
<!-- Generator: Adobe Illustrator 16.0.0, SVG Export Plug-In . SVG Version: 6.00 Build 0)  -->
<!DOCTYPE svg PUBLIC "-//W3C//DTD SVG 1.1//EN" "http://www.w3.org/Graphics/SVG/1.1/DTD/svg11.dtd">
<svg version="1.1" id="Camada_1" xmlns="http://www.w3.org/2000/svg" xmlns:xlink="http://www.w3.org/1999/xlink" x="0px" y="0px"
	 width="400px" height="400px" viewBox="0 0 400 400" enable-background="new 0 0 400 400" xml:space="preserve">
<line fill="none" stroke="#000000" stroke-miterlimit="10" x1="108.179" y1="138.188" x2="108.179" y2="348.979"/>
<line fill="none" stroke="#000000" stroke-miterlimit="10" x1="108.179" y1="138.188" x2="51.817" y2="217.871"/>
<line fill="none" stroke="#000000" stroke-miterlimit="10" x1="51.817" y1="217.871" x2="18.001" y2="178.029"/>
<line fill="none" stroke="#000000" stroke-miterlimit="10" x1="18.001" y1="178.029" x2="108.179" y2="71.682"/>
<line fill="none" stroke="#000000" stroke-miterlimit="10" x1="108.179" y1="71.682" x2="169.049" y2="71.682"/>
<line fill="none" stroke="#000000" stroke-miterlimit="10" x1="169.049" y1="71.682" x2="203.022" y2="138.188"/>
<line fill="none" stroke="#000000" stroke-miterlimit="10" x1="203.022" y1="138.188" x2="236.682" y2="71.682"/>
<line fill="none" stroke="#000000" stroke-miterlimit="10" x1="236.682" y1="71.682" x2="296.425" y2="71.682"/>
<line fill="none" stroke="#000000" stroke-miterlimit="10" x1="296.425" y1="71.682" x2="388.856" y2="178.029"/>
<line fill="none" stroke="#000000" stroke-miterlimit="10" x1="296.425" y1="138.188" x2="296.425" y2="348.979"/>
<line fill="none" stroke="#000000" stroke-miterlimit="10" x1="296.425" y1="138.188" x2="359.548" y2="206.947"/>
<line fill="none" stroke="#000000" stroke-miterlimit="10" x1="359.548" y1="206.947" x2="388.856" y2="178.029"/>
<line fill="none" stroke="#000000" stroke-miterlimit="10" x1="108.179" y1="348.979" x2="296.425" y2="348.979"/>
<line fill="none" stroke="#000000" stroke-miterlimit="10" x1="169.049" y1="71.682" x2="236.682" y2="71.682"/>
</svg>
